<?xml version="1.0" encoding="UTF-8"?>
<svg width="50px" height="45px" viewBox="0 0 50 45" version="1.1" xmlns="http://www.w3.org/2000/svg" xmlns:xlink="http://www.w3.org/1999/xlink">
    <!-- Generator: Sketch 53.2 (72643) - https://sketchapp.com -->
    <title>expo</title>
    <desc>Created with Sketch.</desc>
    <g id="Newsletter" stroke="none" stroke-width="1" fill="none" fill-rule="evenodd">
        <g id="Icons" transform="translate(-360.000000, -566.000000)" fill="#FFFFFF">
            <g id="social" transform="translate(356.000000, 473.000000)">
                <g id="expo" transform="translate(4.000000, 93.000000)">
                    <path d="M1.24055568e-14,38.6725261 C0.0904287226,39.7599916 0.478270539,40.8505861 1.49461638,42.3147274 C2.70004663,44.0511745 4.77413344,45.0054012 6.28705274,43.4744686 C7.30798958,42.4413123 18.3475783,23.4580443 23.6678708,16.264671 C24.3066428,15.3767151 25.6262833,15.3767151 26.2654211,16.264671 C31.5857138,23.4580443 42.6253025,42.4413123 43.6462393,43.4744686 C45.1587925,45.0054012 47.2332454,44.0511745 48.4386756,42.3147274 C49.6254369,40.6050867 49.9548895,39.4047638 49.9548895,38.1240226 C49.9548895,37.2517035 32.7618592,5.77636705 31.0304031,3.15643182 C29.3652601,0.636503567 28.8565945,0.0883993103 26.0406913,0 L23.8925112,3.7459024e-12 C21.0763975,0.0883993103 20.5679952,0.636503567 18.9025228,3.15643182 C17.2073914,5.72194504 0.685656509,35.9565257 0,38.0305809 L1.24055568e-14,38.6725261 Z" id="Path"></path>
                </g>
            </g>
        </g>
    </g>
</svg>