<?xml version="1.0" encoding="UTF-8"?>
<svg width="55px" height="55px" viewBox="0 0 55 55" version="1.1" xmlns="http://www.w3.org/2000/svg" xmlns:xlink="http://www.w3.org/1999/xlink">
    <!-- Generator: Sketch 53.2 (72643) - https://sketchapp.com -->
    <title>facebook</title>
    <desc>Created with Sketch.</desc>
    <g id="Newsletter" stroke="none" stroke-width="1" fill="none" fill-rule="evenodd">
        <g id="Icons" transform="translate(-356.000000, -653.000000)" fill="#FFFFFF" fill-rule="nonzero">
            <g id="social" transform="translate(356.000000, 473.000000)">
                <g id="facebook" transform="translate(0.000000, 180.000000)">
                    <path d="M49.9601231,0 L5.03987687,0 C2.29166667,0 0,2.29166667 0,5.03987687 L0,49.9601231 C0,52.7083333 2.29166667,55 5.03987687,55 L27.5,55 L27.5,32.0833333 L20.625,32.0833333 L20.625,25.2083333 L27.5,25.2083333 L27.5,18.3333333 C27.5,12.6041667 29.7916667,9.16666667 36.6666667,9.16666667 L43.5416667,9.16666667 L43.5416667,16.0416667 L40.5607102,16.0416667 C38.5017898,16.0416667 36.6666667,17.8767898 36.6666667,19.9357102 L36.6666667,25.2083333 L45.8333333,25.2083333 L44.6875,32.0833333 L36.6666667,32.0833333 L36.6666667,55 L49.9601231,55 C52.7083333,55 55,52.7083333 55,49.9601231 L55,5.03987687 C55,2.29166667 52.7083333,0 49.9601231,0 Z" id="Path"></path>
                </g>
            </g>
        </g>
    </g>
</svg>