<?xml version="1.0" encoding="UTF-8"?>
<svg width="55px" height="53px" viewBox="0 0 55 53" version="1.1" xmlns="http://www.w3.org/2000/svg" xmlns:xlink="http://www.w3.org/1999/xlink">
    <!-- Generator: Sketch 53.2 (72643) - https://sketchapp.com -->
    <title>github</title>
    <desc>Created with Sketch.</desc>
    <g id="Newsletter" stroke="none" stroke-width="1" fill="none" fill-rule="evenodd">
        <g id="Icons" transform="translate(-356.000000, -473.000000)" fill="#FFFFFF" fill-rule="nonzero">
            <g id="social" transform="translate(356.000000, 473.000000)">
                <g id="github">
                    <path d="M27.5,0 C12.3087571,0 0,12.1607907 0,27.1694162 C0,39.17101 7.87760417,49.3595411 18.8077794,52.9502919 C20.1863612,53.1979298 20.6876633,52.3665728 20.6876633,51.6413486 C20.6876633,50.9957218 20.6608073,49.2887874 20.651856,47.0246693 C12.9980469,48.6608501 11.3867187,43.3808544 11.3867187,43.3808544 C10.1334635,40.2411612 8.33414771,39.4009606 8.33414771,39.4009606 C5.83658854,37.7205594 8.52213542,37.7559362 8.52213542,37.7559362 C11.2792969,37.95051 12.7294933,40.5507069 12.7294933,40.5507069 C15.1822917,44.7074872 19.1658523,43.5046745 20.7324219,42.8148249 C20.9830729,41.0548286 21.6992187,39.8608596 22.4780279,39.1798559 C16.3728835,38.4988499 9.95442708,36.1639782 9.95442708,25.7543424 C9.95442708,22.7826875 11.0286458,20.3593749 12.7832031,18.4578689 C12.505696,17.7768653 11.556804,15.0086255 13.051759,11.267526 C13.051759,11.267526 15.3613281,10.5422995 20.6160487,14.0534507 C22.8092448,13.4520444 25.1635748,13.1513423 27.5,13.1424987 C29.8364252,13.1513423 32.1907552,13.4520444 34.3839512,14.0534507 C39.6386719,10.5422995 41.9392898,11.267526 41.9392898,11.267526 C43.443196,15.0086255 42.5032552,17.7768653 42.2167969,18.4578689 C43.9803054,20.3593749 45.0366217,22.7826875 45.0366217,25.7543424 C45.0366217,36.1905114 38.6092117,38.4811626 32.4861648,39.1621663 C33.4708665,39.9935233 34.348144,41.656235 34.348144,44.1856782 C34.348144,47.8206495 34.3212902,50.7480839 34.3212902,51.6413486 C34.3212902,52.3665728 34.8136387,53.2156171 36.2101231,52.9502919 C47.1313471,49.3506974 55,39.17101 55,27.1694162 C55,12.1607907 42.6912429,0 27.5,0 Z" id="Path"></path>
                </g>
            </g>
        </g>
    </g>
</svg>