<?xml version="1.0" encoding="UTF-8"?>
<svg width="55px" height="49px" viewBox="0 0 55 49" version="1.1" xmlns="http://www.w3.org/2000/svg" xmlns:xlink="http://www.w3.org/1999/xlink">
    <!-- Generator: Sketch 53.2 (72643) - https://sketchapp.com -->
    <title>medium</title>
    <desc>Created with Sketch.</desc>
    <g id="Newsletter" stroke="none" stroke-width="1" fill="none" fill-rule="evenodd">
        <g id="Icons" transform="translate(-356.000000, -831.000000)" fill="#FFFFFF" fill-rule="nonzero">
            <g id="social" transform="translate(356.000000, 473.000000)">
                <g id="medium" transform="translate(0.000000, 358.000000)">
                    <path d="M18.3333333,47.0646701 C18.3333333,48.2769097 17.709264,49 16.8243114,49 C16.5122768,49 16.1644345,48.9096141 15.796131,48.7182078 L1.52436821,41.2055128 C0.685454524,40.7642148 0,39.5945099 0,38.6108948 L0,1.78645833 C0,0.813476222 0.496186429,0.239257472 1.20721726,0.239257472 C1.45786798,0.239257472 1.73921131,0.308377417 2.03078464,0.462565444 L2.53208738,0.728406778 C2.53208738,0.728406778 2.53720238,0.728406778 2.53720238,0.728406778 L18.2668344,9.00672811 C18.2924107,9.02267761 18.312872,9.04926283 18.3333333,9.07053019 L18.3333333,47.0646701 Z M34.8149188,2.56271769 L35.7766004,0.919813028 C36.1193263,0.334961278 36.7485119,0 37.3879275,0 C37.536273,0 37.6897321,0.0212673611 37.8380763,0.0638020833 C37.9506142,0.0903859444 38.068267,0.132920667 38.1910349,0.19672275 L54.7800406,8.92697517 C54.7851569,8.92697517 54.7851569,8.93229167 54.7851569,8.93229167 L54.8005019,8.93760817 C54.8107332,8.94292603 54.8107332,8.95887553 54.8209632,8.96419339 C54.9028085,9.03331197 54.9386161,9.15028178 54.8823471,9.24598558 L38.3598404,37.5103085 L36.6717817,40.3920353 L25.7249811,18.1091587 L34.8149188,2.56271769 Z M20.952381,32.1296661 L20.952381,14.3767361 L32.7125189,38.3237847 L22.1340219,32.7570526 L20.952381,32.1296661 Z M55,47.0646701 C55,48.2024746 54.3503531,48.8511285 53.3937879,48.8511285 C52.9641004,48.8511285 52.4730289,48.7235243 51.9563799,48.4523651 L49.5879843,47.2029087 L39.0094873,41.6361766 L55,14.2863502 L55,47.0646701 Z" id="Shape"></path>
                </g>
            </g>
        </g>
    </g>
</svg>