<?xml version="1.0" encoding="UTF-8"?>
<svg width="55px" height="45px" viewBox="0 0 55 45" version="1.1" xmlns="http://www.w3.org/2000/svg" xmlns:xlink="http://www.w3.org/1999/xlink">
    <!-- Generator: Sketch 53.2 (72643) - https://sketchapp.com -->
    <title>twitter</title>
    <desc>Created with Sketch.</desc>
    <g id="Newsletter" stroke="none" stroke-width="1" fill="none" fill-rule="evenodd">
        <g id="Icons" transform="translate(-356.000000, -746.000000)" fill="#FFFFFF" fill-rule="nonzero">
            <g id="social" transform="translate(356.000000, 473.000000)">
                <g id="twitter" transform="translate(0.000000, 273.000000)">
                    <path d="M55,5.32559655 C52.9724888,6.23189807 50.7992362,6.84041416 48.5145354,7.11662017 C50.8463879,5.70969526 52.6381417,3.48278431 53.4782945,0.832933469 C51.3007557,2.13196458 48.8788871,3.07710729 46.3112771,3.58636157 C44.2537602,1.3767135 41.3217985,0 38.0769231,0 C31.8443619,0 26.7905856,5.0839163 26.7905856,11.3589721 C26.7905856,12.2480096 26.8934615,13.1154689 27.0863534,13.9484034 C17.7075053,13.4736738 9.39599385,8.95080042 3.82783943,2.07586051 C2.8548051,3.75899032 2.30184769,5.70969526 2.30184769,7.78987231 C2.30184769,11.7301234 4.29078074,15.2085934 7.32133092,17.2499281 C5.46956567,17.1895075 3.7292498,16.6759378 2.20754428,15.8257403 C2.20754428,15.8732135 2.20754428,15.9206867 2.20754428,15.9681599 C2.20754428,21.4750172 6.09968051,26.0626255 11.2563326,27.1113455 C10.313304,27.3702886 9.31455129,27.5083916 8.28579282,27.5083916 C7.55708835,27.5083916 6.84981717,27.4393401 6.15969197,27.3012371 C7.59995383,31.8111631 11.7664257,35.1040569 16.700179,35.1946867 C12.8423347,38.2415848 7.97716527,40.0541867 2.68763157,40.0541867 C1.7746087,40.0541867 0.878731801,40.0023981 0,39.8945054 C4.98947838,43.1226631 10.9219856,45 17.2960019,45 C38.0512047,45 49.4018398,27.6896524 49.4018398,12.6795815 C49.4018398,12.1875901 49.3889801,11.6912822 49.3718341,11.2079217 C51.5750913,9.60678969 53.486868,7.60429613 55,5.32559655 Z" id="Path"></path>
                </g>
            </g>
        </g>
    </g>
</svg>