<?xml version="1.0" encoding="utf-8"?>
<!-- Generator: Adobe Illustrator 19.2.1, SVG Export Plug-In . SVG Version: 6.00 Build 0)  -->
<svg version="1.1" id="Layer_1" xmlns="http://www.w3.org/2000/svg" xmlns:xlink="http://www.w3.org/1999/xlink" x="0px" y="0px"
	 viewBox="0 0 100 100" style="enable-background:new 0 0 100 100;" xml:space="preserve">
<style type="text/css">
	.st0{fill:#293042;}
	.st1{fill:#87AF4A;}
	.st2{fill:#FFFFFF;}
</style>
<path class="st0" d="M100,28.53472V14.3784H72.67535c-0.8511-1.86471-2.05656-3.31622-3.65376-4.23852
	c-5.54487-3.19988-14.17894,0.66158-23.00636,9.30596c-8.82626-8.64521-17.45955-12.50719-23.00849-9.30596
	c-5.54564,3.20225-6.51822,12.6105-3.44462,24.57827C7.6612,38.03999,0,43.58627,0,49.99023
	c0,6.40362,7.66033,11.94965,19.56009,15.27153c-0.50847,1.9702-0.91794,3.89023-1.21088,5.73769
	c-1.51196,9.54261,0.14201,16.23322,4.65753,18.84039c1.31783,0.76028,2.81409,1.13653,4.45963,1.13653
	c3.99504,0,8.86801-2.21664,14.18504-6.52287c1.45345-1.17726,2.91154-2.4918,4.36343-3.9171
	c6.74548,6.60628,13.37782,10.42069,18.60553,10.42069c1.61328,0,3.09327-0.36268,4.40121-1.11725
	c4.5161-2.60718,6.17007-9.29778,4.65734-18.84039c-0.29275-1.84742-0.70232-3.7674-1.21088-5.73755
	c11.90015-3.32188,19.56087-8.86796,19.56087-15.27168c0-6.40406-7.66149-11.95043-19.56281-15.27227
	c0.55274-2.15227,0.96948-4.21774,1.25738-6.18324H100z M67.55943,12.67281c3.9992,2.30857,4.92529,10.33274,2.09802,21.32032
	c-4.02536-0.95461-8.4628-1.66612-13.19783-2.09371c-2.73814-3.88737-5.57315-7.37495-8.41282-10.38418
	C56.14905,13.57293,63.56158,10.36298,67.55943,12.67281z M68.87667,36.79046c-0.92822,3.07762-2.13464,6.35335-3.62703,9.77317
	c-0.98498-1.95276-2.04086-3.90785-3.16359-5.85263c-1.13222-1.96109-2.29893-3.8491-3.4885-5.66629
	C62.30614,35.46232,65.74679,36.05541,68.87667,36.79046z M24.46871,12.67281c0.85101-0.49118,1.85468-0.73316,2.98845-0.73316
	c4.19488,0,10.14719,3.32082,16.52669,9.57507c-2.84044,3.00923-5.67622,6.49706-8.41494,10.38471
	c-4.73503,0.42759-9.17248,1.1391-13.19803,2.09381C19.54382,23.00589,20.4699,14.98181,24.46871,12.67281z M33.43079,35.04471
	c-1.18967,1.81715-2.35628,3.7052-3.4886,5.66629c-1.12283,1.94477-2.17852,3.89991-3.16369,5.85263
	c-1.49219-3.41977-2.69862-6.6955-3.62683-9.77307C26.28155,36.0555,29.72219,35.46237,33.43079,35.04471z M2.92413,49.99023
	c0-4.61792,6.48587-9.43194,17.4146-12.47726c1.18608,3.96418,2.7889,8.16362,4.78647,12.47886
	c-1.96589,4.25058-3.57791,8.45253-4.78511,12.47605C9.41058,59.42256,2.92413,54.60834,2.92413,49.99023z M39.81107,82.18117
	c-6.40585,5.1879-11.99838,7.05687-15.34235,5.12576c-3.34387-1.93034-4.52172-7.70721-3.23102-15.84985
	c0.2786-1.75839,0.66802-3.58711,1.15237-5.46543c4.01954,0.95224,8.44905,1.66206,13.17536,2.08906
	c2.73466,3.88267,5.56696,7.36245,8.40313,10.36916C42.58389,79.80862,41.19476,81.06042,39.81107,82.18117z M45.99934,76.37354
	c-2.19683-2.33938-4.42591-5.01722-6.63699-8.01352c2.16854,0.12162,4.38707,0.18788,6.65171,0.18788
	c2.26038,0,4.47464-0.06612,6.63931-0.18725C50.49317,71.27985,48.25972,73.9681,45.99934,76.37354z M67.55943,87.30692
	c-3.99901,2.3091-11.41173-0.90079-19.51418-8.84364c2.88093-3.05724,5.71381-6.55431,8.41165-10.38205
	c4.72844-0.42691,9.15988-1.13692,13.18117-2.08945c0.48416,1.87851,0.87377,3.70738,1.15237,5.46597
	C72.08115,79.59972,70.90398,85.37659,67.55943,87.30692z M89.10478,49.99023c0,4.61816-6.48664,9.43247-17.41654,12.47779
	c-1.2072-4.02356-2.81932-8.22556-4.78521-12.47619c1.99767-4.31529,3.60029-8.51472,4.78637-12.479
	C82.61872,40.55819,89.10478,45.37227,89.10478,49.99023z"/>
<g>
	<path class="st1" d="M55.44655,40.13184c1.80421,0,3.26665,1.4626,3.26665,3.26665c0,1.80421-1.46244,3.26682-3.26665,3.26682
		c-1.80405,0-3.26665-1.4626-3.26665-3.26682C52.17989,41.59444,53.6425,40.13184,55.44655,40.13184"/>
	<path class="st2" d="M49.20656,40.17586h-3.87899v11.36187c0,0.67717-0.08572,1.27934-0.25715,1.81078
		c-0.17144,0.53145-0.41787,0.98146-0.7436,1.35005c-0.32358,0.36858-0.72217,0.65145-1.19147,0.8486
		c-0.4693,0.19715-1.0029,0.29573-1.59863,0.29573c-0.59788,0-1.13147-0.09858-1.60077-0.29573s-0.86575-0.48216-1.19147-0.85503
		s-0.57217-0.82503-0.7436-1.35648c-0.17144-0.53145-0.25715-1.13361-0.25715-1.81078V40.17586h-4.45089v11.36187
		c0,1.17647,0.18858,2.25652,0.56788,3.24012c0.37716,0.98146,0.92146,1.83007,1.63292,2.53938
		c0.70931,0.71146,1.57506,1.26433,2.59296,1.66078c1.01789,0.3943,2.16866,0.59145,3.45013,0.59145
		c1.27076,0,2.41724-0.19715,3.43513-0.59145c1.01789-0.39645,1.88364-0.94932,2.5951-1.66078
		c0.70932-0.70931,1.25576-1.55792,1.63721-2.53938c0.38359-0.98361,0.57431-2.06365,0.57431-3.24012v-4.11538
		c-0.83842-1.15598-1.34737-2.5659-1.34737-4.10319C48.43109,42.18286,48.72681,41.12518,49.20656,40.17586z"/>
	<path class="st2" d="M53.26717,49.94057h-0.05893v9.62889h4.4766v-9.62889h-0.01339c-0.70288,0.23653-1.4422,0.3943-2.22491,0.3943
		C54.67722,50.33487,53.95746,50.17107,53.26717,49.94057z"/>
</g>
<path class="st2" d="M78.31108,20.56219h0.3276c0.30293,0,0.521-0.09473,0.65422-0.28517l1.9883-2.88526
	c0.11742-0.15393,0.24373-0.2605,0.37891-0.31872s0.30392-0.08782,0.5062-0.08782h1.78306l-2.61983,3.57105
	c-0.18551,0.24669-0.38582,0.4243-0.59995,0.53284c0.15394,0.05723,0.29307,0.13617,0.41838,0.23682
	c0.12532,0.10065,0.24274,0.23287,0.35129,0.39371l2.66817,4.09896h-1.83141c-0.11742,0-0.21708-0.00789-0.29997-0.02467
	c-0.08289-0.01579-0.15393-0.04046-0.21511-0.07302c-0.06019-0.03157-0.11347-0.07104-0.15788-0.11742
	c-0.04441-0.04638-0.08684-0.10065-0.1273-0.16084l-2.00014-3.07373c-0.07302-0.11348-0.16479-0.1934-0.27629-0.23978
	c-0.11051-0.04638-0.26149-0.07006-0.45094-0.07006h-0.49732v3.75952H76.2616v-8.8334h2.04948V20.56219z"/>
<path class="st2" d="M88.06346,25.81861h-2.06133v-8.8334h2.06133V25.81861z"/>
<path class="st2" d="M96.97379,16.98521v1.62518h-2.48563v7.20822h-2.04948v-7.20822h-2.48563v-1.62518H96.97379z"/>
</svg>
